# 3ds Max Wavefront OBJ Exporter v0.99 - (c)2007 guruware
# File Created: 05.01.2024 17:40:33

mtllib thumb-f2-left.mtl

#
# object thumb_F2_left
#

v  -0.0054 -0.0120 0.0032
v  -0.0089 -0.0020 0.0007
v  -0.0056 -0.0116 -0.0112
v  -0.0091 -0.0015 -0.0087
v  0.0086 -0.0189 -0.0041
v  -0.0033 -0.0137 0.0030
v  -0.0043 -0.0132 -0.0108
v  -0.0053 0.0073 0.0011
v  0.0153 0.0033 0.0073
v  0.0478 0.0199 0.0076
v  0.0160 0.0012 0.0077
v  0.0163 0.0001 0.0076
v  0.0157 0.0022 0.0076
v  0.0462 0.0270 -0.0037
v  0.0453 0.0267 -0.0050
v  -0.0036 0.0083 0.0005
v  -0.0048 0.0077 -0.0088
v  -0.0052 0.0073 -0.0090
v  -0.0054 0.0066 -0.0092
v  -0.0045 -0.0131 0.0031
v  0.0119 -0.0113 0.0052
v  0.0150 -0.0057 0.0065
v  0.0115 -0.0130 0.0044
v  0.0436 0.0136 0.0083
v  0.0450 0.0113 0.0083
v  -0.0067 0.0061 0.0012
v  0.0107 -0.0152 0.0030
v  0.0102 -0.0167 0.0015
v  0.0411 -0.0013 0.0032
v  0.0480 0.0246 0.0040
v  -0.0029 0.0083 0.0011
v  0.0456 0.0227 0.0052
v  -0.0029 0.0085 0.0008
v  0.0469 0.0254 0.0023
v  0.0491 0.0266 0.0014
v  0.0481 0.0182 0.0081
v  0.0465 0.0263 0.0000
v  0.0520 0.0280 -0.0009
v  0.0464 0.0266 -0.0012
v  0.0462 0.0269 -0.0025
v  -0.0038 0.0082 -0.0085
v  0.0466 0.0248 -0.0118
v  0.0467 0.0233 -0.0133
v  0.0507 0.0246 -0.0132
v  0.0488 0.0279 -0.0059
v  0.0454 0.0262 -0.0084
v  0.0493 0.0268 -0.0103
v  -0.0073 0.0055 -0.0091
v  0.0406 0.0149 -0.0159
v  0.0143 0.0046 -0.0139
v  -0.0089 0.0021 0.0012
v  -0.0081 0.0042 0.0012
v  -0.0055 -0.0105 0.0033
v  0.0087 -0.0179 -0.0006
v  0.0095 -0.0186 -0.0026
v  0.0430 0.0095 0.0082
v  0.0437 -0.0025 -0.0066
v  0.0083 -0.0177 -0.0094
v  0.0438 -0.0016 -0.0092
v  0.0503 0.0008 -0.0061
v  0.0441 -0.0026 -0.0041
v  0.0122 -0.0028 -0.0153
v  0.0098 -0.0069 -0.0154
v  -0.0089 0.0022 -0.0090
v  0.0091 -0.0097 -0.0152
v  -0.0091 0.0004 0.0010
v  0.0502 0.0229 0.0062
v  0.0463 0.0211 0.0066
v  0.0460 0.0219 0.0059
v  0.0571 0.0274 0.0008
v  0.0569 0.0286 -0.0044
v  0.0533 0.0259 0.0036
v  0.0464 0.0214 -0.0143
v  0.0425 0.0172 -0.0155
v  0.0512 0.0209 -0.0151
v  0.0410 0.0010 0.0052
v  0.0426 0.0036 0.0064
v  0.0456 0.0076 0.0076
v  0.0084 -0.0186 -0.0066
v  0.0398 -0.0013 -0.0125
v  0.0083 -0.0168 -0.0110
v  0.0084 -0.0156 -0.0125
v  0.0426 -0.0013 -0.0108
v  0.0409 -0.0039 -0.0022
v  0.0106 -0.0176 -0.0004
v  0.0450 -0.0016 -0.0005
v  0.0464 0.0002 -0.0103
v  0.0537 0.0038 -0.0035
v  0.0514 0.0021 -0.0013
v  0.0445 0.0146 -0.0165
v  0.0401 0.0087 -0.0167
v  0.0390 0.0110 -0.0166
v  0.0408 0.0069 -0.0165
v  0.0529 0.0207 0.0075
v  0.0506 0.0174 0.0081
v  0.0539 0.0286 -0.0063
v  0.0664 0.0224 -0.0032
v  0.0649 0.0212 0.0017
v  0.0557 0.0275 -0.0095
v  0.0580 0.0219 -0.0136
v  0.0622 0.0208 -0.0118
v  0.0577 0.0179 -0.0141
v  0.0663 0.0193 -0.0025
v  0.0495 0.0080 0.0065
v  0.0577 0.0134 0.0052
v  0.0530 0.0141 0.0075
v  0.0464 0.0014 0.0031
v  0.0551 0.0060 -0.0077
v  0.0506 0.0036 -0.0109
v  0.0641 0.0191 -0.0093
v  0.0650 0.0178 -0.0063
v  0.0557 0.0083 -0.0102
v  0.0519 0.0079 -0.0133
v  0.0596 0.0115 0.0019
v  0.0524 0.0066 0.0036
v  0.0648 0.0167 -0.0032
v  0.0651 0.0177 -0.0000
v  0.0085 -0.0140 -0.0137
v  0.0087 -0.0121 -0.0146
v  0.0572 0.0247 0.0045
v  0.0560 0.0170 0.0070
v  0.0661 0.0229 -0.0068
v  0.0572 0.0248 -0.0124
v  0.0405 -0.0029 0.0012
v  0.0598 0.0203 0.0056
v  0.0623 0.0167 0.0039
v  0.0418 0.0035 -0.0153
v  0.0586 0.0150 -0.0124
v  0.0589 0.0094 -0.0033
v  0.0521 0.0179 -0.0155
v  0.0394 0.0003 -0.0140
v  0.0464 0.0031 -0.0134
v  0.0630 0.0236 -0.0105
v  0.0472 0.0128 -0.0164
v  0.0491 0.0092 -0.0152
v  0.0412 0.0048 -0.0159
# 136 vertices

vn -0.6790 -0.4001 0.6155
vn -0.9480 -0.1868 0.2576
vn -0.7090 -0.3457 -0.6146
vn -0.9229 -0.1111 -0.3687
vn 0.0117 -0.9999 0.0108
vn -0.2894 -0.7813 0.5529
vn -0.5130 -0.7204 -0.4667
vn -0.4691 0.7040 0.5332
vn -0.1955 0.2781 0.9405
vn -0.1135 0.3742 0.9204
vn -0.0918 -0.0374 0.9951
vn -0.0338 -0.1465 0.9886
vn -0.1546 0.1162 0.9811
vn -0.3093 0.9481 0.0735
vn -0.3455 0.9382 -0.0191
vn -0.4040 0.9038 0.1410
vn -0.4658 0.8009 -0.3764
vn -0.9102 0.3923 0.1326
vn -0.2613 0.3507 -0.8993
vn -0.4665 -0.6536 0.5960
vn 0.0213 -0.3229 0.9462
vn -0.0067 -0.2146 0.9767
vn 0.0886 -0.5008 0.8610
vn -0.0348 0.0552 0.9979
vn 0.0623 -0.0801 0.9948
vn -0.6015 0.5632 0.5665
vn 0.1193 -0.6519 0.7489
vn 0.1285 -0.7984 0.5883
vn 0.3411 -0.7008 0.6265
vn -0.2114 0.7551 0.6206
vn -0.2885 0.7408 0.6066
vn -0.2411 0.6689 0.7032
vn -0.3315 0.8862 0.3238
vn -0.2840 0.8246 0.4892
vn -0.2087 0.8899 0.4056
vn -0.0455 0.1666 0.9850
vn -0.2931 0.9057 0.3063
vn -0.1047 0.9621 0.2518
vn -0.2866 0.9293 0.2332
vn -0.2893 0.9450 0.1528
vn -0.3774 0.9037 -0.2022
vn -0.2567 0.7428 -0.6184
vn -0.2107 0.5864 -0.7821
vn -0.0439 0.6296 -0.7757
vn -0.2297 0.9696 -0.0850
vn -0.3191 0.9038 -0.2850
vn -0.1682 0.8705 -0.4626
vn -0.6580 0.5025 -0.5609
vn -0.1575 0.2837 -0.9459
vn -0.1843 0.2630 -0.9470
vn -0.7861 0.1941 0.5869
vn -0.7263 0.3743 0.5765
vn -0.3972 -0.0075 0.9177
vn -0.0698 -0.9149 0.3976
vn 0.2085 -0.9614 0.1795
vn 0.0438 -0.1533 0.9872
vn 0.4288 -0.8822 -0.1947
vn 0.0549 -0.9203 -0.3873
vn 0.4070 -0.8412 -0.3560
vn 0.5733 -0.8069 -0.1426
vn 0.4570 -0.8893 0.0184
vn -0.1552 0.1424 -0.9776
vn -0.1582 0.0414 -0.9865
vn -0.8023 0.2043 -0.5609
vn -0.0978 -0.1409 -0.9852
vn -0.8937 0.0099 0.4485
vn -0.0787 0.5939 0.8007
vn -0.2029 0.5197 0.8299
vn -0.2204 0.6033 0.7664
vn 0.2871 0.8793 0.3801
vn 0.2788 0.9604 -0.0030
vn -0.0214 0.7913 0.6111
vn -0.1570 0.4367 -0.8858
vn -0.1556 0.3625 -0.9189
vn 0.0463 0.3195 -0.9464
vn 0.2800 -0.5751 0.7687
vn 0.2447 -0.4767 0.8443
vn 0.1863 -0.3137 0.9311
vn 0.0266 -0.9788 -0.2031
vn 0.3274 -0.6882 -0.6475
vn 0.0569 -0.8265 -0.5600
vn 0.0403 -0.6926 -0.7202
vn 0.3655 -0.7721 -0.5199
vn 0.4209 -0.8943 0.1517
vn 0.2942 -0.8923 0.3423
vn 0.4642 -0.8308 0.3070
vn 0.4419 -0.7571 -0.4812
vn 0.6967 -0.7153 0.0541
vn 0.5805 -0.7610 0.2898
vn -0.0208 0.1614 -0.9867
vn 0.0165 -0.0373 -0.9992
vn -0.0954 0.1305 -0.9869
vn 0.1152 -0.1811 -0.9767
vn 0.1265 0.3112 0.9419
vn 0.0994 0.0444 0.9941
vn -0.0314 0.9897 -0.1398
vn 0.8867 0.4378 0.1483
vn 0.7712 0.2973 0.5629
vn 0.1756 0.8773 -0.4467
vn 0.2940 0.2700 -0.9169
vn 0.6098 -0.0070 -0.7926
vn 0.4074 -0.1127 -0.9063
vn 0.9691 -0.2315 0.0853
vn 0.3578 -0.4507 0.8178
vn 0.4831 -0.4153 0.7708
vn 0.2724 -0.2002 0.9411
vn 0.4255 -0.6692 0.6092
vn 0.7027 -0.6527 -0.2833
vn 0.5490 -0.6364 -0.5419
vn 0.7828 -0.2944 -0.5482
vn 0.8512 -0.4340 -0.2952
vn 0.6593 -0.5418 -0.5213
vn 0.4946 -0.4420 -0.7484
vn 0.6724 -0.6163 0.4099
vn 0.5099 -0.6089 0.6076
vn 0.8177 -0.5749 -0.0301
vn 0.8584 -0.4021 0.3185
vn 0.0082 -0.5250 -0.8510
vn -0.0405 -0.3479 -0.9366
vn 0.2947 0.6268 0.7213
vn 0.3281 -0.0739 0.9417
vn 0.8733 0.4024 -0.2748
vn 0.2311 0.6167 -0.7525
vn 0.3811 -0.7986 0.4657
vn 0.4467 0.1967 0.8728
vn 0.6611 -0.2928 0.6908
vn 0.2417 -0.4164 -0.8765
vn 0.5895 -0.3950 -0.7046
vn 0.7584 -0.6517 0.0062
vn 0.1774 0.0703 -0.9816
vn 0.2687 -0.5638 -0.7810
vn 0.3782 -0.5466 -0.7471
vn 0.5902 0.5399 -0.6002
vn 0.1641 -0.0643 -0.9843
vn 0.3245 -0.2938 -0.8991
vn 0.1671 -0.2874 -0.9431
# 136 vertex normals

o thumb_F2_left
g thumb_F2_left
usemtl wire_119119119
s 1
f 1//1 2//2 3//3
f 4//4 3//3 2//2
f 5//5 6//6 7//7
f 8//8 9//9 10//10
f 11//11 1//1 12//12
f 10//10 9//9 13//13
f 14//14 15//15 16//16
s 2
f 17//17 18//18 19//19
s 1
f 20//20 21//21 22//22
f 21//21 20//20 23//23
f 24//24 13//13 11//11
f 24//24 11//11 25//25
f 26//26 13//13 9//9
f 3//3 7//7 1//1
f 20//20 7//7 6//6
f 20//20 1//1 7//7
f 27//27 28//28 29//29
f 30//30 31//31 32//32
f 33//33 31//31 34//34
f 33//33 34//34 35//35
f 33//33 8//8 31//31
f 36//36 10//10 13//13
f 37//37 38//38 39//39
f 37//37 33//33 35//35
f 37//37 39//39 33//33
f 35//35 38//38 37//37
f 40//40 39//39 38//38
f 40//40 14//14 16//16
f 40//40 33//33 39//39
f 40//40 16//16 33//33
f 16//16 15//15 41//41
f 16//16 41//41 17//17
f 16//16 17//17 8//8
f 16//16 8//8 33//33
f 17//17 42//42 43//43
f 18//18 17//17 43//43
f 44//44 43//43 42//42
f 45//45 46//46 41//41
f 45//45 41//41 15//15
f 47//47 17//17 41//41
f 47//47 42//42 17//17
f 48//48 17//17 19//19
f 19//19 49//49 50//50
f 20//20 22//22 1//1
f 51//51 13//13 52//52
f 53//53 11//11 13//13
f 6//6 28//28 27//27
f 5//5 54//54 6//6
f 5//5 55//55 54//54
f 23//23 6//6 27//27
f 23//23 20//20 6//6
f 56//56 25//25 11//11
f 57//57 58//58 59//59
f 57//57 59//59 60//60
f 61//61 55//55 5//5
f 62//62 63//63 48//48
f 64//64 63//63 3//3
f 52//52 13//13 26//26
f 26//26 9//9 8//8
f 65//65 3//3 63//63
f 66//66 2//2 1//1
f 30//30 34//34 31//31
f 30//30 35//35 34//34
f 30//30 32//32 67//67
f 10//10 68//68 8//8
f 69//69 8//8 68//68
f 69//69 67//67 32//32
f 67//67 69//69 68//68
f 24//24 36//36 13//13
f 45//45 40//40 38//38
f 45//45 14//14 40//40
f 70//70 71//71 38//38
f 30//30 72//72 35//35
f 31//31 8//8 69//69
f 31//31 69//69 32//32
f 44//44 73//73 43//43
f 45//45 47//47 46//46
f 45//45 15//15 14//14
f 46//46 47//47 41//41
f 47//47 44//44 42//42
f 49//49 18//18 74//74
f 49//49 19//19 18//18
f 75//75 73//73 44//44
f 17//17 48//48 8//8
f 12//12 1//1 22//22
f 12//12 56//56 11//11
f 51//51 53//53 13//13
f 28//28 6//6 54//54
f 27//27 76//76 23//23
f 77//77 23//23 76//76
f 77//77 21//21 23//23
f 77//77 78//78 21//21
f 79//79 58//58 57//57
f 57//57 5//5 79//79
f 80//80 81//81 82//82
f 83//83 81//81 80//80
f 82//82 81//81 7//7
f 84//84 85//85 55//55
f 84//84 86//86 85//85
f 84//84 55//55 61//61
f 87//87 60//60 59//59
f 88//88 89//89 60//60
f 64//64 48//48 63//63
f 64//64 3//3 4//4
f 90//90 91//91 92//92
f 92//92 91//91 63//63
f 92//92 63//63 62//62
f 93//93 65//65 91//91
f 62//62 48//48 50//50
f 50//50 49//49 92//92
f 64//64 66//66 51//51
f 65//65 63//63 91//91
f 7//7 79//79 5//5
f 76//76 27//27 29//29
f 36//36 94//94 10//10
f 67//67 10//10 94//94
f 67//67 68//68 10//10
f 95//95 36//36 24//24
f 35//35 72//72 38//38
f 45//45 38//38 96//96
f 97//97 70//70 98//98
f 96//96 99//99 47//47
f 99//99 44//44 47//47
f 100//100 101//101 102//102
f 97//97 98//98 103//103
f 64//64 52//52 48//48
f 51//51 52//52 64//64
f 47//47 45//45 96//96
f 73//73 74//74 18//18
f 73//73 18//18 43//43
f 74//74 73//73 75//75
f 90//90 92//92 49//49
f 26//26 48//48 52//52
f 22//22 78//78 56//56
f 12//12 22//22 56//56
f 53//53 66//66 1//1
f 55//55 85//85 54//54
f 104//104 105//105 106//106
f 107//107 77//77 76//76
f 107//107 76//76 29//29
f 22//22 21//21 78//78
f 86//86 60//60 89//89
f 89//89 107//107 86//86
f 95//95 94//94 36//36
f 61//61 5//5 57//57
f 61//61 57//57 60//60
f 83//83 58//58 81//81
f 58//58 79//79 7//7
f 58//58 7//7 81//81
f 86//86 84//84 61//61
f 86//86 61//61 60//60
f 108//108 88//88 60//60
f 109//109 60//60 87//87
f 110//110 111//111 112//112
f 112//112 109//109 113//113
f 114//114 115//115 89//89
f 116//116 103//103 117//117
f 80//80 87//87 83//83
f 62//62 50//50 92//92
f 4//4 2//2 66//66
f 4//4 66//66 64//64
f 118//118 7//7 119//119
f 3//3 119//119 7//7
f 120//120 72//72 67//67
f 121//121 95//95 106//106
f 98//98 70//70 120//120
f 71//71 99//99 96//96
f 72//72 70//70 38//38
f 70//70 97//97 71//71
f 71//71 97//97 122//122
f 71//71 96//96 38//38
f 72//72 30//30 67//67
f 123//123 44//44 99//99
f 111//111 103//103 116//116
f 122//122 97//97 103//103
f 90//90 49//49 74//74
f 48//48 19//19 50//50
f 1//1 11//11 53//53
f 66//66 53//53 51//51
f 28//28 54//54 85//85
f 85//85 86//86 124//124
f 28//28 124//124 29//29
f 77//77 107//107 104//104
f 78//78 77//77 104//104
f 107//107 29//29 124//124
f 125//125 121//121 126//126
f 94//94 95//95 121//121
f 56//56 78//78 25//25
f 95//95 24//24 25//25
f 118//118 119//119 127//127
f 59//59 83//83 87//87
f 59//59 58//58 83//83
f 82//82 7//7 118//118
f 128//128 110//110 112//112
f 109//109 112//112 108//108
f 109//109 108//108 60//60
f 129//129 114//114 88//88
f 90//90 74//74 75//75
f 90//90 75//75 130//130
f 130//130 100//100 102//102
f 131//131 80//80 82//82
f 109//109 87//87 132//132
f 131//131 118//118 127//127
f 131//131 127//127 132//132
f 119//119 3//3 65//65
f 120//120 67//67 94//94
f 126//126 98//98 125//125
f 120//120 70//70 72//72
f 123//123 75//75 44//44
f 100//100 75//75 123//123
f 133//133 71//71 122//122
f 110//110 122//122 111//111
f 129//129 88//88 108//108
f 112//112 111//111 108//108
f 111//111 122//122 103//103
f 104//104 106//106 78//78
f 107//107 115//115 104//104
f 115//115 107//107 89//89
f 86//86 107//107 124//124
f 113//113 109//109 132//132
f 113//113 102//102 128//128
f 132//132 87//87 80//80
f 132//132 80//80 131//131
f 113//113 128//128 112//112
f 117//117 126//126 114//114
f 117//117 103//103 98//98
f 114//114 105//105 115//115
f 105//105 114//114 126//126
f 114//114 89//89 88//88
f 129//129 111//111 116//116
f 129//129 117//117 114//114
f 129//129 116//116 117//117
f 134//134 90//90 130//130
f 91//91 90//90 134//134
f 91//91 134//134 93//93
f 75//75 100//100 130//130
f 118//118 131//131 82//82
f 94//94 125//125 120//120
f 25//25 106//106 95//95
f 121//121 125//125 94//94
f 133//133 101//101 100//100
f 123//123 133//133 100//100
f 108//108 111//111 129//129
f 122//122 101//101 133//133
f 110//110 101//101 122//122
f 128//128 101//101 110//110
f 128//128 102//102 101//101
f 85//85 124//124 28//28
f 105//105 104//104 115//115
f 105//105 126//126 121//121
f 135//135 102//102 113//113
f 98//98 126//126 117//117
f 134//134 102//102 135//135
f 134//134 130//130 102//102
f 135//135 132//132 127//127
f 135//135 113//113 132//132
f 135//135 127//127 136//136
f 135//135 136//136 93//93
f 135//135 93//93 134//134
f 136//136 119//119 65//65
f 136//136 127//127 119//119
f 136//136 65//65 93//93
f 106//106 25//25 78//78
f 133//133 99//99 71//71
f 123//123 99//99 133//133
f 121//121 106//106 105//105
f 120//120 125//125 98//98
f 48//48 26//26 8//8
# 0 polygons - 268 triangles
